<?xml version="1.0" encoding="UTF-8" standalone="no"?>
<!-- Created with Inkscape (http://www.inkscape.org/) -->

<svg
   width="3.6781218mm"
   height="3.9999998mm"
   viewBox="0 0 3.6781218 3.9999998"
   version="1.1"
   id="svg5"
   inkscape:version="1.1.2 (b8e25be833, 2022-02-05)"
   sodipodi:docname="fig-icon-agenda.svg"
   xmlns:inkscape="http://www.inkscape.org/namespaces/inkscape"
   xmlns:sodipodi="http://sodipodi.sourceforge.net/DTD/sodipodi-0.dtd"
   xmlns="http://www.w3.org/2000/svg"
   xmlns:svg="http://www.w3.org/2000/svg">
  <sodipodi:namedview
     id="namedview7"
     pagecolor="#ffffff"
     bordercolor="#111111"
     borderopacity="1"
     inkscape:pageshadow="0"
     inkscape:pageopacity="0"
     inkscape:pagecheckerboard="false"
     inkscape:document-units="mm"
     showgrid="true"
     inkscape:zoom="42.50205"
     inkscape:cx="7.823152"
     inkscape:cy="7.0349547"
     inkscape:window-width="1920"
     inkscape:window-height="1009"
     inkscape:window-x="-8"
     inkscape:window-y="-8"
     inkscape:window-maximized="1"
     inkscape:current-layer="layer1"
     inkscape:snap-grids="true"
     units="mm"
     fit-margin-top="0"
     fit-margin-left="0"
     fit-margin-right="0"
     fit-margin-bottom="0">
    <inkscape:grid
       type="xygrid"
       id="grid832"
       units="mm"
       empspacing="10"
       spacingx="1"
       spacingy="1"
       originx="-18.166082"
       originy="-85.610292" />
  </sodipodi:namedview>
  <defs
     id="defs2">
    <clipPath
       clipPathUnits="userSpaceOnUse"
       id="clipPath341-6">
      <path
         d="M 0,0 H 36 V 36 H 0 Z"
         id="path339-1" />
    </clipPath>
  </defs>
  <g
     inkscape:label="Layer 1"
     inkscape:groupmode="layer"
     id="layer1"
     transform="translate(-18.166082,-85.610294)">
    <path
       style="fill:#1494cc;fill-opacity:1;stroke-width:0.999997"
       d="M 18.477031,89.588925 C 18.381754,89.561501 18.223443,89.396985 18.192695,89.293444 18.158268,89.177515 18.156742,86.376432 18.191043,86.261943 18.241333,86.094091 18.41087,85.964901 18.596544,85.952946 L 18.688431,85.947029 18.698641,86.093004 C 18.710388,86.26096 18.743594,86.312146 18.864263,86.348299 18.955441,86.375617 19.034783,86.350642 19.109506,86.271103 19.147376,86.230792 19.158463,86.192244 19.164887,86.078546 L 19.17292,85.936389 20.053743,85.941709 20.934567,85.947029 20.944776,86.093004 C 20.955894,86.251959 20.984744,86.302557 21.088848,86.345678 21.256513,86.415127 21.414423,86.276897 21.414423,86.060678 21.414423,85.967943 21.419038,85.957239 21.459025,85.957239 21.591228,85.957239 21.775158,86.112529 21.819923,86.261943 21.85139,86.366971 21.852704,89.1792 21.821338,89.292154 21.793661,89.391825 21.672602,89.526382 21.567568,89.574219 21.490876,89.609147 21.39615,89.611333 20.015693,89.610024 19.136477,89.609191 18.517974,89.600709 18.477031,89.588925 Z M 21.613667,88.045124 21.618926,86.774015 H 19.995428 18.37193 V 88.036616 C 18.37193,88.731046 18.378111,89.305397 18.385666,89.312953 18.393221,89.320507 19.121428,89.324336 20.003904,89.32146 L 21.608407,89.316233 Z M 19.345578,88.457199 C 19.339022,88.4168 19.343249,88.331863 19.354972,88.268448 19.389293,88.08279 19.465184,87.9605 19.61112,87.855697 L 19.701362,87.79089 19.801054,87.833777 C 19.929104,87.888863 20.088315,87.889138 20.208803,87.834481 L 20.299815,87.793195 20.381725,87.850763 C 20.560455,87.97638 20.667281,88.195651 20.654907,88.4115 L 20.648695,88.519875 20.003096,88.525264 19.357497,88.530651 Z M 19.885558,87.805701 C 19.662153,87.734874 19.535936,87.470119 19.624602,87.258321 19.66335,87.165763 19.803752,87.045877 19.90548,87.018484 20.223767,86.932779 20.509543,87.260976 20.382159,87.565924 20.297119,87.769504 20.08874,87.870117 19.885558,87.805701 Z M 18.819612,86.231294 C 18.775786,86.184676 18.769294,86.156478 18.763004,85.98541 18.759096,85.879134 18.761627,85.769359 18.768628,85.741465 18.801165,85.611825 18.944588,85.568328 19.036489,85.660229 19.083938,85.707678 19.08661,85.722966 19.08661,85.947029 19.08661,86.171093 19.083938,86.18638 19.036489,86.233829 18.969918,86.3004 18.883632,86.299391 18.819612,86.231294 Z M 21.085943,86.257776 C 21.023241,86.209635 21.006034,86.142793 21.006034,85.947357 21.006034,85.743429 21.033342,85.647926 21.098837,85.622793 21.165216,85.597321 21.233657,85.611262 21.282625,85.660229 21.330073,85.707678 21.332745,85.722966 21.332745,85.947029 21.332745,86.171093 21.330073,86.18638 21.282625,86.233829 21.228263,86.288191 21.139615,86.298984 21.085943,86.257776 Z"
       id="path37036" />
  </g>
</svg>
