<?xml version="1.0" encoding="UTF-8" standalone="no"?>
<!-- Created with Inkscape (http://www.inkscape.org/) -->

<svg
   width="44.870132mm"
   height="12.539767mm"
   viewBox="0 0 44.870132 12.539767"
   version="1.1"
   id="svg5"
   inkscape:version="1.1.2 (b8e25be833, 2022-02-05)"
   sodipodi:docname="fig-logo-europasscv.svg"
   xmlns:inkscape="http://www.inkscape.org/namespaces/inkscape"
   xmlns:sodipodi="http://sodipodi.sourceforge.net/DTD/sodipodi-0.dtd"
   xmlns:xlink="http://www.w3.org/1999/xlink"
   xmlns="http://www.w3.org/2000/svg"
   xmlns:svg="http://www.w3.org/2000/svg">
  <sodipodi:namedview
     id="namedview7"
     pagecolor="#ffffff"
     bordercolor="#111111"
     borderopacity="1"
     inkscape:pageshadow="0"
     inkscape:pageopacity="0"
     inkscape:pagecheckerboard="false"
     inkscape:document-units="mm"
     showgrid="true"
     inkscape:zoom="3.3103387"
     inkscape:cx="128.23461"
     inkscape:cy="36.854234"
     inkscape:window-width="1920"
     inkscape:window-height="1009"
     inkscape:window-x="-8"
     inkscape:window-y="-8"
     inkscape:window-maximized="1"
     inkscape:current-layer="layer1"
     inkscape:snap-grids="true"
     units="mm"
     fit-margin-top="0"
     fit-margin-left="0"
     fit-margin-right="0"
     fit-margin-bottom="0">
    <inkscape:grid
       type="xygrid"
       id="grid832"
       units="mm"
       empspacing="10"
       spacingx="1"
       spacingy="1"
       originx="-1.80577"
       originy="-84.68352" />
  </sodipodi:namedview>
  <defs
     id="defs2">
    <clipPath
       clipPathUnits="userSpaceOnUse"
       id="clipPath25">
      <path
         d="M 0,0 H 350.17734 V 97.864967 H 0 Z"
         id="path23" />
    </clipPath>
    <clipPath
       clipPathUnits="userSpaceOnUse"
       id="clipPath29">
      <path
         d="M 0,0 H 351 V 98 H 0 Z"
         id="path27" />
    </clipPath>
    <linearGradient
       inkscape:collect="always"
       xlink:href="#linearGradient39"
       id="linearGradient3199"
       gradientUnits="userSpaceOnUse"
       gradientTransform="matrix(17.306671,0,0,17.306671,118.29491,17.437669)"
       x1="0"
       y1="0"
       x2="1"
       y2="0"
       spreadMethod="pad" />
    <linearGradient
       x1="0"
       y1="0"
       x2="1"
       y2="0"
       gradientUnits="userSpaceOnUse"
       gradientTransform="matrix(17.306671,0,0,17.306671,118.29491,17.437669)"
       spreadMethod="pad"
       id="linearGradient39">
      <stop
         style="stop-opacity:1;stop-color:#fab400"
         offset="0"
         id="stop35" />
      <stop
         style="stop-opacity:1;stop-color:#ffe900"
         offset="1"
         id="stop37" />
    </linearGradient>
    <clipPath
       clipPathUnits="userSpaceOnUse"
       id="clipPath43">
      <path
         d="M 0,0 H 351 V 98 H 0 Z"
         id="path41" />
    </clipPath>
    <linearGradient
       inkscape:collect="always"
       xlink:href="#linearGradient53"
       id="linearGradient3201"
       gradientUnits="userSpaceOnUse"
       gradientTransform="matrix(104.794,0,0,104.794,16.682822,56.734845)"
       x1="0"
       y1="0"
       x2="1"
       y2="0"
       spreadMethod="pad" />
    <linearGradient
       x1="0"
       y1="0"
       x2="1"
       y2="0"
       gradientUnits="userSpaceOnUse"
       gradientTransform="matrix(104.794,0,0,104.794,16.682822,56.734845)"
       spreadMethod="pad"
       id="linearGradient53">
      <stop
         style="stop-opacity:1;stop-color:#ffffff"
         offset="0"
         id="stop49" />
      <stop
         style="stop-opacity:1;stop-color:#feeb15"
         offset="1"
         id="stop51" />
    </linearGradient>
    <linearGradient
       inkscape:collect="always"
       xlink:href="#linearGradient63"
       id="linearGradient3203"
       gradientUnits="userSpaceOnUse"
       gradientTransform="matrix(104.794,0,0,104.794,16.682822,56.734845)"
       x1="0"
       y1="0"
       x2="1"
       y2="0"
       spreadMethod="pad" />
    <linearGradient
       x1="0"
       y1="0"
       x2="1"
       y2="0"
       gradientUnits="userSpaceOnUse"
       gradientTransform="matrix(104.794,0,0,104.794,16.682822,56.734845)"
       spreadMethod="pad"
       id="linearGradient63">
      <stop
         style="stop-opacity:1;stop-color:#fab608"
         offset="0"
         id="stop59" />
      <stop
         style="stop-opacity:1;stop-color:#ffffff"
         offset="1"
         id="stop61" />
    </linearGradient>
    <clipPath
       clipPathUnits="userSpaceOnUse"
       id="clipPath67">
      <path
         d="M 0,0 H 351 V 98 H 0 Z"
         id="path65" />
    </clipPath>
    <linearGradient
       inkscape:collect="always"
       xlink:href="#linearGradient77"
       id="linearGradient3205"
       gradientUnits="userSpaceOnUse"
       gradientTransform="matrix(9.419403,0,0,9.419403,6.242606,26.930766)"
       x1="0"
       y1="0"
       x2="1"
       y2="0"
       spreadMethod="pad" />
    <linearGradient
       x1="0"
       y1="0"
       x2="1"
       y2="0"
       gradientUnits="userSpaceOnUse"
       gradientTransform="matrix(9.419403,0,0,9.419403,6.242606,26.930766)"
       spreadMethod="pad"
       id="linearGradient77">
      <stop
         style="stop-opacity:1;stop-color:#fab400"
         offset="0"
         id="stop73" />
      <stop
         style="stop-opacity:1;stop-color:#ffe900"
         offset="1"
         id="stop75" />
    </linearGradient>
    <linearGradient
       inkscape:collect="always"
       xlink:href="#linearGradient87"
       id="linearGradient3207"
       gradientUnits="userSpaceOnUse"
       gradientTransform="matrix(10.377503,0,0,10.377503,19.416131,11.765053)"
       x1="0"
       y1="0"
       x2="1"
       y2="0"
       spreadMethod="pad" />
    <linearGradient
       x1="0"
       y1="0"
       x2="1"
       y2="0"
       gradientUnits="userSpaceOnUse"
       gradientTransform="matrix(10.377503,0,0,10.377503,19.416131,11.765053)"
       spreadMethod="pad"
       id="linearGradient87">
      <stop
         style="stop-opacity:1;stop-color:#fab400"
         offset="0"
         id="stop83" />
      <stop
         style="stop-opacity:1;stop-color:#ffe900"
         offset="1"
         id="stop85" />
    </linearGradient>
    <linearGradient
       inkscape:collect="always"
       xlink:href="#linearGradient97"
       id="linearGradient3209"
       gradientUnits="userSpaceOnUse"
       gradientTransform="matrix(14.494171,0,0,14.494171,38.850028,6.977766)"
       x1="0"
       y1="0"
       x2="1"
       y2="0"
       spreadMethod="pad" />
    <linearGradient
       x1="0"
       y1="0"
       x2="1"
       y2="0"
       gradientUnits="userSpaceOnUse"
       gradientTransform="matrix(14.494171,0,0,14.494171,38.850028,6.977766)"
       spreadMethod="pad"
       id="linearGradient97">
      <stop
         style="stop-opacity:1;stop-color:#fab400"
         offset="0"
         id="stop93" />
      <stop
         style="stop-opacity:1;stop-color:#ffe900"
         offset="1"
         id="stop95" />
    </linearGradient>
    <linearGradient
       inkscape:collect="always"
       xlink:href="#linearGradient107"
       id="linearGradient3211"
       gradientUnits="userSpaceOnUse"
       gradientTransform="matrix(7.385101,0,0,7.385101,1.860431,62.942121)"
       x1="0"
       y1="0"
       x2="1"
       y2="0"
       spreadMethod="pad" />
    <linearGradient
       x1="0"
       y1="0"
       x2="1"
       y2="0"
       gradientUnits="userSpaceOnUse"
       gradientTransform="matrix(7.385101,0,0,7.385101,1.860431,62.942121)"
       spreadMethod="pad"
       id="linearGradient107">
      <stop
         style="stop-opacity:1;stop-color:#fab400"
         offset="0"
         id="stop103" />
      <stop
         style="stop-opacity:1;stop-color:#ffe900"
         offset="1"
         id="stop105" />
    </linearGradient>
    <linearGradient
       inkscape:collect="always"
       xlink:href="#linearGradient117"
       id="linearGradient3213"
       gradientUnits="userSpaceOnUse"
       gradientTransform="matrix(7.39563,0,0,7.39563,-3.75e-4,44.727704)"
       x1="0"
       y1="0"
       x2="1"
       y2="0"
       spreadMethod="pad" />
    <linearGradient
       x1="0"
       y1="0"
       x2="1"
       y2="0"
       gradientUnits="userSpaceOnUse"
       gradientTransform="matrix(7.39563,0,0,7.39563,-3.75e-4,44.727704)"
       spreadMethod="pad"
       id="linearGradient117">
      <stop
         style="stop-opacity:1;stop-color:#fab400"
         offset="0"
         id="stop113" />
      <stop
         style="stop-opacity:1;stop-color:#ffe900"
         offset="1"
         id="stop115" />
    </linearGradient>
    <linearGradient
       inkscape:collect="always"
       xlink:href="#linearGradient127"
       id="linearGradient3215"
       gradientUnits="userSpaceOnUse"
       gradientTransform="matrix(6.691132,0,0,6.691132,9.804009,75.895459)"
       x1="0"
       y1="0"
       x2="1"
       y2="0"
       spreadMethod="pad" />
    <linearGradient
       x1="0"
       y1="0"
       x2="1"
       y2="0"
       gradientUnits="userSpaceOnUse"
       gradientTransform="matrix(6.691132,0,0,6.691132,9.804009,75.895459)"
       spreadMethod="pad"
       id="linearGradient127">
      <stop
         style="stop-opacity:1;stop-color:#fab400"
         offset="0"
         id="stop123" />
      <stop
         style="stop-opacity:1;stop-color:#ffe900"
         offset="1"
         id="stop125" />
    </linearGradient>
    <linearGradient
       inkscape:collect="always"
       xlink:href="#linearGradient137"
       id="linearGradient3217"
       gradientUnits="userSpaceOnUse"
       gradientTransform="matrix(6.682892,0,0,6.682892,21.835406,82.751386)"
       x1="0"
       y1="0"
       x2="1"
       y2="0"
       spreadMethod="pad" />
    <linearGradient
       x1="0"
       y1="0"
       x2="1"
       y2="0"
       gradientUnits="userSpaceOnUse"
       gradientTransform="matrix(6.682892,0,0,6.682892,21.835406,82.751386)"
       spreadMethod="pad"
       id="linearGradient137">
      <stop
         style="stop-opacity:1;stop-color:#fab400"
         offset="0"
         id="stop133" />
      <stop
         style="stop-opacity:1;stop-color:#ffe900"
         offset="1"
         id="stop135" />
    </linearGradient>
  </defs>
  <g
     inkscape:label="Layer 1"
     inkscape:groupmode="layer"
     id="layer1"
     transform="translate(-1.80577,-84.683528)">
    <g
       id="g2891"
       transform="matrix(0.12813594,0,0,-0.12813594,1.80577,97.223548)">
      <g
         clip-path="url(#clipPath25)"
         id="g2889">
        <g
           transform="matrix(1,0,0,-1,0,97.864967)"
           id="g2887">
          <g
             id="g2885">
            <g
               id="g2755">
              <g
                 id="g2753">
                <g
                   clip-path="url(#clipPath29)"
                   id="g2751">
                  <g
                     id="g2749">
                    <path
                       d="M 233.84,60.051 C 233.859,60.102 233.895,60.145 233.965,60.168 233.941,60.086 233.895,60.055 233.84,60.051"
                       style="fill:#7ab0e0;fill-opacity:1;fill-rule:nonzero;stroke:none"
                       id="path2717" />
                    <path
                       d="M 243.738,39.887 C 241.07,39.887 237.586,41.895 234.574,46.176 L 231.297,61.559 C 232.375,62.633 234.648,63.297 236.848,63.297 239.867,63.297 242.211,61.629 243.543,59.688 246.082,55.938 247.621,49.254 247.621,44.973 247.621,41.43 246.48,39.887 243.738,39.887 M 249.164,63.43 C 246.02,66.914 241.602,68.918 237.254,68.918 234.242,68.918 231.637,68.453 229.898,67.449 229.898,67.781 229.566,69.453 229.367,70.391 L 227.156,80.824 219.664,82.566 227.754,44.438 C 228.625,40.359 228.422,38.219 227.754,36.078 L 234.574,33.266 C 235.25,34.609 235.648,37.082 235.316,39.418 238.258,35.875 242.672,33.668 246.688,33.668 252.441,33.668 255.578,37.949 255.578,44.703 255.578,50.727 252.977,59.156 249.164,63.43"
                       style="fill:#7ab0e0;fill-opacity:1;fill-rule:nonzero;stroke:none"
                       id="path2719" />
                    <path
                       d="M 277.801,39.352 C 274.789,39.352 272.648,40.023 270.039,43.098 267.031,46.715 265.629,53.262 265.629,58.016 265.629,61.695 266.832,63.098 269.305,63.098 272.387,63.098 275.793,60.023 277.328,56.613 L 280.945,40.023 C 280.273,39.621 278.93,39.352 277.801,39.352 M 287.164,43.836 284.422,57.215 C 283.551,61.293 283.957,63.035 285.625,64.84 L 279.602,69.32 C 277.801,67.844 277.062,65.977 277.062,63.773 274.652,67.047 271.238,68.984 266.891,68.984 261.605,68.984 258.07,65.441 258.07,58.219 258.07,50.727 260.875,43.504 265.219,39.02 268.832,35.344 273.242,33.539 278.664,33.539 282.543,33.539 286.496,34.336 289.172,36.078 288.566,37.949 287.629,41.43 287.164,43.836"
                       style="fill:#7ab0e0;fill-opacity:1;fill-rule:nonzero;stroke:none"
                       id="path2721" />
                    <path
                       d="M 317.664,41.23 C 314.859,39.621 312.242,38.887 309.57,38.887 306.027,38.887 303.414,40.227 303.414,43.031 303.414,44.84 304.355,45.977 307.027,46.98 L 311.031,48.516 C 315.188,50.121 317.93,52.531 317.93,56.547 317.93,63.496 312.242,69.191 302.27,69.191 297.594,69.191 293.246,67.844 289.77,65.641 L 292.707,60.219 C 295.527,62.164 299.469,63.57 303.285,63.57 306.961,63.57 309.773,61.496 309.773,58.684 309.773,56.547 308.562,55.477 305.488,54.27 L 301.609,52.801 C 297.594,51.258 295.258,48.922 295.258,44.703 295.258,38.82 300.141,33.203 310.035,33.203 314.051,33.203 317.93,34.402 320.605,36.078 L 317.664,41.23"
                       style="fill:#7ab0e0;fill-opacity:1;fill-rule:nonzero;stroke:none"
                       id="path2723" />
                    <path
                       d="M 347.23,41.23 C 344.422,39.621 341.82,38.887 339.145,38.887 335.598,38.887 332.98,40.227 332.98,43.031 332.98,44.84 333.926,45.977 336.602,46.98 L 340.613,48.516 C 344.758,50.121 347.504,52.531 347.504,56.547 347.504,63.496 341.82,69.191 331.855,69.191 327.164,69.191 322.816,67.844 319.336,65.641 L 322.277,60.219 C 325.09,62.164 329.039,63.57 332.852,63.57 336.531,63.57 339.34,61.496 339.34,58.684 339.34,56.547 338.137,55.477 335.059,54.27 L 331.184,52.801 C 327.164,51.258 324.824,48.922 324.824,44.703 324.824,38.82 329.707,33.203 339.609,33.203 343.625,33.203 347.504,34.402 350.176,36.078 L 347.23,41.23"
                       style="fill:#7ab0e0;fill-opacity:1;fill-rule:nonzero;stroke:none"
                       id="path2725" />
                    <path
                       d="M 277.801,39.352 C 274.789,39.352 272.648,40.023 270.039,43.098 267.031,46.715 265.629,53.262 265.629,58.016 265.629,61.695 266.832,63.098 269.305,63.098 272.387,63.098 275.793,60.023 277.328,56.613 L 280.945,40.023 C 280.273,39.621 278.93,39.352 277.801,39.352 M 287.164,43.836 284.422,57.215 C 283.551,61.293 283.957,63.035 285.625,64.84 L 279.602,69.32 C 277.801,67.844 277.062,65.977 277.062,63.773 274.652,67.047 271.238,68.984 266.891,68.984 261.605,68.984 258.07,65.441 258.07,58.219 258.07,50.727 260.875,43.504 265.219,39.02 268.832,35.344 273.242,33.539 278.664,33.539 282.543,33.539 286.496,34.336 289.172,36.078 288.566,37.949 287.629,41.43 287.164,43.836"
                       style="fill:#7ab0e0;fill-opacity:1;fill-rule:nonzero;stroke:none"
                       id="path2727" />
                    <path
                       d="M 317.664,41.23 C 314.859,39.621 312.242,38.887 309.57,38.887 306.027,38.887 303.414,40.227 303.414,43.031 303.414,44.84 304.355,45.977 307.027,46.98 L 311.031,48.516 C 315.188,50.121 317.93,52.531 317.93,56.547 317.93,63.496 312.242,69.191 302.27,69.191 297.594,69.191 293.246,67.844 289.77,65.641 L 292.707,60.219 C 295.527,62.164 299.469,63.57 303.285,63.57 306.961,63.57 309.773,61.496 309.773,58.684 309.773,56.547 308.562,55.477 305.488,54.27 L 301.609,52.801 C 297.594,51.258 295.258,48.922 295.258,44.703 295.258,38.82 300.141,33.203 310.035,33.203 314.051,33.203 317.93,34.402 320.605,36.078 Z"
                       style="fill:#7ab0e0;fill-opacity:1;fill-rule:nonzero;stroke:none"
                       id="path2729" />
                    <path
                       d="M 347.23,41.23 C 344.422,39.621 341.82,38.887 339.145,38.887 335.598,38.887 332.98,40.227 332.98,43.031 332.98,44.84 333.926,45.977 336.602,46.98 L 340.613,48.516 C 344.758,50.121 347.504,52.531 347.504,56.547 347.504,63.496 341.82,69.191 331.855,69.191 327.164,69.191 322.816,67.844 319.336,65.641 L 322.277,60.219 C 325.09,62.164 329.039,63.57 332.852,63.57 336.531,63.57 339.34,61.496 339.34,58.684 339.34,56.547 338.137,55.477 335.059,54.27 L 331.184,52.801 C 327.164,51.258 324.824,48.922 324.824,44.703 324.824,38.82 329.707,33.203 339.609,33.203 343.625,33.203 347.504,34.402 350.176,36.078 Z"
                       style="fill:#7ab0e0;fill-opacity:1;fill-rule:nonzero;stroke:none"
                       id="path2731" />
                    <path
                       d="M 134.719,50.738 C 134.383,47.926 133.523,45.184 131.375,43.176 130.043,41.977 127.898,40.77 124.758,40.77 119.273,40.77 115.258,44.648 114.523,50.738 H 134.719 M 139.203,61.438 C 138.742,62.574 137.867,64.379 136.199,66.254 135.254,67.262 132.18,70.668 125.289,70.668 114.73,70.668 110.105,62.574 110.105,53.68 110.105,43.113 117.07,37.223 124.824,37.223 134.465,37.223 139.477,45.652 139.203,53.945 H 114.457 C 114.391,55.617 114.523,58.094 115.453,60.574 118,67.121 123.957,67.121 125.289,67.121 128.77,67.121 132.789,65.922 135.527,60.43 L 139.203,61.438"
                       style="fill:#7ab0e0;fill-opacity:1;fill-rule:nonzero;stroke:none"
                       id="path2733" />
                    <path
                       d="M 167.992,69.867 H 164.047 V 64.117 C 163.773,64.785 163.305,65.852 162.441,66.992 159.969,70.066 156.484,70.605 153.938,70.605 147.789,70.605 145.184,66.723 144.383,64.715 143.305,62.238 143.238,58.961 143.238,53.613 V 37.961 H 147.188 V 54.484 C 147.258,61.438 147.258,66.992 154.414,66.992 156.211,66.992 158.895,66.723 161.168,64.312 163.973,61.367 164.047,57.957 164.047,52.008 V 37.961 H 167.992 V 69.867"
                       style="fill:#7ab0e0;fill-opacity:1;fill-rule:nonzero;stroke:none"
                       id="path2735" />
                    <path
                       d="M 178.234,69.867 H 174.363 V 37.961 H 178.234 V 43.043 C 180.246,38.828 183.594,37.426 187.539,37.426 188.477,37.426 188.941,37.488 189.742,37.625 V 41.168 C 188.539,40.969 188.406,40.969 187.344,40.969 186.27,40.969 183.121,41.039 180.777,43.512 178.309,46.258 178.309,49.531 178.234,56.086 V 69.867"
                       style="fill:#7ab0e0;fill-opacity:1;fill-rule:nonzero;stroke:none"
                       id="path2737" />
                    <path
                       d="M 203.949,40.57 C 201.133,40.57 198.395,41.707 196.59,43.844 193.844,47.059 193.582,51.805 193.582,54.418 193.582,63.512 198.258,67.188 203.75,67.188 210.766,67.188 214.047,61.637 214.109,54.219 214.109,52.41 214.242,40.57 203.949,40.57 M 203.75,70.668 C 194.449,70.668 189.363,63.309 189.363,54.348 189.363,46.055 193.582,37.223 203.879,37.223 213.984,37.223 218.262,45.52 218.328,53.742 218.387,63.441 212.777,70.668 203.75,70.668"
                       style="fill:#7ab0e0;fill-opacity:1;fill-rule:nonzero;stroke:none"
                       id="path2739" />
                    <path
                       d="M 135.086,50.441 C 134.742,47.59 133.867,44.805 131.691,42.773 130.336,41.551 128.16,40.328 124.973,40.328 119.41,40.328 115.336,44.266 114.586,50.441 H 135.086 M 139.633,61.301 C 139.164,62.457 138.277,64.289 136.582,66.191 135.625,67.211 132.508,70.668 125.516,70.668 114.801,70.668 110.105,62.457 110.105,53.43 110.105,42.703 117.168,36.73 125.047,36.73 134.82,36.73 139.914,45.281 139.633,53.699 H 114.523 C 114.457,55.395 114.586,57.91 115.531,60.422 118.121,67.074 124.156,67.074 125.516,67.074 129.047,67.074 133.125,65.852 135.898,60.281 Z"
                       style="fill:#7ab0e0;fill-opacity:1;fill-rule:nonzero;stroke:none"
                       id="path2741" />
                    <path
                       d="M 168.848,69.859 H 164.844 V 64.016 C 164.57,64.699 164.098,65.781 163.215,66.938 160.703,70.059 157.168,70.605 154.586,70.605 148.344,70.605 145.699,66.664 144.883,64.629 143.797,62.117 143.73,58.789 143.73,53.363 V 37.48 H 147.738 V 54.238 C 147.801,61.301 147.801,66.938 155.07,66.938 156.891,66.938 159.617,66.664 161.918,64.223 164.77,61.23 164.844,57.77 164.844,51.727 V 37.48 H 168.848 Z"
                       style="fill:#7ab0e0;fill-opacity:1;fill-rule:nonzero;stroke:none"
                       id="path2743" />
                    <path
                       d="M 179.238,69.859 H 175.312 V 37.48 H 179.238 V 42.637 C 181.285,38.359 184.676,36.938 188.684,36.938 189.637,36.938 190.105,37 190.922,37.137 V 40.73 C 189.699,40.531 189.562,40.531 188.48,40.531 187.395,40.531 184.203,40.598 181.828,43.113 179.316,45.895 179.316,49.223 179.238,55.871 Z"
                       style="fill:#7ab0e0;fill-opacity:1;fill-rule:nonzero;stroke:none"
                       id="path2745" />
                    <path
                       d="M 205.336,40.125 C 202.48,40.125 199.703,41.277 197.871,43.449 195.082,46.711 194.82,51.527 194.82,54.172 194.82,63.406 199.562,67.137 205.133,67.137 212.254,67.137 215.582,61.504 215.645,53.973 215.645,52.137 215.785,40.125 205.336,40.125 M 205.133,70.668 C 195.699,70.668 190.531,63.199 190.531,54.109 190.531,45.691 194.82,36.73 205.262,36.73 215.516,36.73 219.863,45.148 219.922,53.496 219.988,63.336 214.293,70.668 205.133,70.668"
                       style="fill:#7ab0e0;fill-opacity:1;fill-rule:nonzero;stroke:none"
                       id="path2747" />
                  </g>
                </g>
              </g>
            </g>
            <g
               id="g2763">
              <g
                 id="g2761">
                <g
                   id="g2759">
                  <path
                     d="M 123.875,10.719 118.297,25.516 127.523,27.465 135.602,7.41 Z"
                     style="fill:url(#linearGradient3199);stroke:none"
                     id="path2757" />
                </g>
              </g>
            </g>
            <g
               id="g2779">
              <g
                 id="g2777">
                <g
                   clip-path="url(#clipPath43)"
                   id="g2775">
                  <g
                     id="g2773">
                    <path
                       d="M 123.598,10.758 117.086,25.734 127.527,27.465 128.324,25.645 118.586,25.148 125.922,9.957 Z"
                       style="fill:#ffffff;fill-opacity:1;fill-rule:nonzero;stroke:none"
                       id="path2765" />
                    <path
                       d="M 123.598,10.758 117.086,25.734 127.527,27.465 128.324,25.645 118.586,25.148 125.922,9.957 Z"
                       style="fill:#164493;fill-opacity:1;fill-rule:nonzero;stroke:none"
                       id="path2767" />
                    <path
                       d="M 129.449,21.668 C 129.449,21.668 129.484,21.59 129.531,21.457 130.211,19.637 135.117,6.57 135.719,5.957 136.379,5.305 131.684,17.328 131.246,18.164"
                       style="fill:#ffffff;fill-opacity:1;fill-rule:nonzero;stroke:none"
                       id="path2769" />
                    <path
                       d="M 129.449,21.668 C 129.449,21.668 129.484,21.59 129.531,21.457 130.211,19.637 135.117,6.57 135.719,5.957 136.379,5.305 131.684,17.328 131.246,18.164"
                       style="fill:#164493;fill-opacity:1;fill-rule:nonzero;stroke:none"
                       id="path2771" />
                  </g>
                </g>
              </g>
            </g>
            <g
               id="g2787">
              <g
                 id="g2785">
                <g
                   id="g2783">
                  <path
                     d="M 68.863,43.195 37.75,27.531 41.961,38.535 62.266,56.125 48.348,67.273 16.684,64.492 47.625,75.586 87.992,74.199 121.477,94.109 109.199,74.91 83.891,55.441 100.172,46.809 111.855,28.285 84.141,42.812 77.973,27.895 62.617,19.359 Z"
                     style="fill:url(#linearGradient3201);stroke:none"
                     id="path2781" />
                </g>
              </g>
            </g>
            <g
               id="g2795">
              <g
                 id="g2793">
                <g
                   id="g2791">
                  <path
                     d="M 68.863,43.195 37.75,27.531 41.961,38.535 62.266,56.125 48.348,67.273 16.684,64.492 47.625,75.586 87.992,74.199 121.477,94.109 109.199,74.91 83.891,55.441 100.172,46.809 111.855,28.285 84.141,42.812 77.973,27.895 62.617,19.359 Z"
                     style="fill:url(#linearGradient3203);stroke:none"
                     id="path2789" />
                </g>
              </g>
            </g>
            <g
               id="g2827">
              <g
                 id="g2825">
                <g
                   clip-path="url(#clipPath67)"
                   id="g2823">
                  <g
                     id="g2821">
                    <path
                       d="M 72.965,42.805 C 56.16,42.672 34.355,22.453 34.355,22.453 32.027,40.711 57.973,55.719 57.973,55.719 51.473,67.742 13.523,63.848 13.523,63.848 37.594,82.531 73.797,73.766 73.797,73.766 93.707,76.938 122.703,97.863 122.703,97.863 127.883,81.133 83.039,55.945 83.039,55.945 108.227,47.535 118.062,25.086 118.062,25.086 118.062,25.086 95.785,39.406 84.766,40.477 84.766,40.477 85.656,21.988 59.852,19.555 59.852,19.555 85.535,23.961 82.562,43.699 82.562,43.699 98.371,41.406 115.086,28.004 115.086,28.004 104.141,45.809 78.504,55.742 78.504,55.742 118.531,78.211 121.652,95.488 121.652,95.488 93.504,73.133 73.785,71.191 73.785,71.191 39.402,79.555 17.66,65.227 17.66,65.227 52.551,71.641 61.762,55.512 61.762,55.512 35.066,41.602 35.137,24.625 35.137,24.625 59.18,47.191 72.93,45.352 L 72.965,42.805"
                       style="fill:#ffffff;fill-opacity:1;fill-rule:nonzero;stroke:none"
                       id="path2797" />
                    <path
                       d="M 72.965,42.805 C 56.16,42.672 34.355,22.453 34.355,22.453 32.027,40.711 57.973,55.719 57.973,55.719 51.473,67.742 13.523,63.848 13.523,63.848 37.594,82.531 73.797,73.766 73.797,73.766 93.707,76.938 122.703,97.863 122.703,97.863 127.883,81.133 83.039,55.945 83.039,55.945 108.227,47.535 118.062,25.086 118.062,25.086 118.062,25.086 95.785,39.406 84.766,40.477 84.766,40.477 85.656,21.988 59.852,19.555 59.852,19.555 85.535,23.961 82.562,43.699 82.562,43.699 98.371,41.406 115.086,28.004 115.086,28.004 104.141,45.809 78.504,55.742 78.504,55.742 118.531,78.211 121.652,95.488 121.652,95.488 93.504,73.133 73.785,71.191 73.785,71.191 39.402,79.555 17.66,65.227 17.66,65.227 52.551,71.641 61.762,55.512 61.762,55.512 35.066,41.602 35.137,24.625 35.137,24.625 59.18,47.191 72.93,45.352 Z"
                       style="fill:#164493;fill-opacity:1;fill-rule:nonzero;stroke:none"
                       id="path2799" />
                    <path
                       d="M 58.074,23.461 C 58.074,23.461 61.625,25.113 62.508,25.273 63.395,25.438 65.336,24.805 67.074,25.117 68.809,25.438 71.34,26.812 71.039,28.117 L 69.91,27.973 C 69.91,27.973 68.703,26.414 66.902,26.039 65.105,25.668 63.934,26.582 62.402,26.25 59.996,25.742 58.074,23.461 58.074,23.461"
                       style="fill:#ffffff;fill-opacity:1;fill-rule:nonzero;stroke:none"
                       id="path2801" />
                    <path
                       d="M 58.074,23.461 C 58.074,23.461 61.625,25.113 62.508,25.273 63.395,25.438 65.336,24.805 67.074,25.117 68.809,25.438 71.34,26.812 71.039,28.117 L 69.91,27.973 C 69.91,27.973 68.703,26.414 66.902,26.039 65.105,25.668 63.934,26.582 62.402,26.25 59.996,25.742 58.074,23.461 58.074,23.461"
                       style="fill:#164493;fill-opacity:1;fill-rule:nonzero;stroke:none"
                       id="path2803" />
                    <path
                       d="M 69,30.203 70.371,30.523 C 70.371,30.523 70.145,28.383 67.191,27.75 65.133,27.309 64.152,27.898 63.328,28.191 62.504,28.48 61.453,29.367 58.156,27.129 58.156,27.129 59.789,29.727 62.922,29.422 64.891,29.23 64.406,28.395 66.98,28.867 69.051,29.242 69,30.203 69,30.203"
                       style="fill:#ffffff;fill-opacity:1;fill-rule:nonzero;stroke:none"
                       id="path2805" />
                    <path
                       d="M 69,30.203 70.371,30.523 C 70.371,30.523 70.145,28.383 67.191,27.75 65.133,27.309 64.152,27.898 63.328,28.191 62.504,28.48 61.453,29.367 58.156,27.129 58.156,27.129 59.789,29.727 62.922,29.422 64.891,29.23 64.406,28.395 66.98,28.867 69.051,29.242 69,30.203 69,30.203"
                       style="fill:#164493;fill-opacity:1;fill-rule:nonzero;stroke:none"
                       id="path2807" />
                    <path
                       d="M 57.918,30.547 C 57.918,30.547 60.465,32.543 62.344,32.109 64.223,31.684 66.332,30.633 68.254,32.543 68.254,32.543 65.992,31.5 64.582,32.508 63.336,33.402 61.473,33.512 59.855,32.527 58.238,31.539 57.918,30.547 57.918,30.547"
                       style="fill:#ffffff;fill-opacity:1;fill-rule:nonzero;stroke:none"
                       id="path2809" />
                    <path
                       d="M 57.918,30.547 C 57.918,30.547 60.465,32.543 62.344,32.109 64.223,31.684 66.332,30.633 68.254,32.543 68.254,32.543 65.992,31.5 64.582,32.508 63.336,33.402 61.473,33.512 59.855,32.527 58.238,31.539 57.918,30.547 57.918,30.547"
                       style="fill:#164493;fill-opacity:1;fill-rule:nonzero;stroke:none"
                       id="path2811" />
                    <path
                       d="M 78.34,32.285 C 78.223,32.785 77.73,33.098 77.234,32.984 76.734,32.875 76.414,32.371 76.531,31.879 76.645,31.375 77.145,31.062 77.648,31.176 78.141,31.293 78.457,31.789 78.34,32.285"
                       style="fill:#ffffff;fill-opacity:1;fill-rule:nonzero;stroke:none"
                       id="path2813" />
                    <path
                       d="M 78.34,32.285 C 78.223,32.785 77.73,33.098 77.234,32.984 76.734,32.875 76.414,32.371 76.531,31.879 76.645,31.375 77.145,31.062 77.648,31.176 78.141,31.293 78.457,31.789 78.34,32.285"
                       style="fill:#0e4689;fill-opacity:1;fill-rule:nonzero;stroke:none"
                       id="path2815" />
                    <path
                       d="M 82.922,36.707 C 82.328,37.074 81.516,37.617 80.629,37.625 79.051,37.645 77.719,37.484 77.305,36.527 V 36.586 C 77.312,37.84 78.867,38.84 80.77,38.816 81.602,38.812 82.359,38.605 82.949,38.273 L 82.922,36.707"
                       style="fill:#ffffff;fill-opacity:1;fill-rule:nonzero;stroke:none"
                       id="path2817" />
                    <path
                       d="M 82.922,36.707 C 82.328,37.074 81.516,37.617 80.629,37.625 79.051,37.645 77.719,37.484 77.305,36.527 V 36.586 C 77.312,37.84 78.867,38.84 80.77,38.816 81.602,38.812 82.359,38.605 82.949,38.273 Z"
                       style="fill:#0e4689;fill-opacity:1;fill-rule:nonzero;stroke:none"
                       id="path2819" />
                  </g>
                </g>
              </g>
            </g>
            <g
               id="g2835">
              <g
                 id="g2833">
                <g
                   id="g2831">
                  <path
                     d="M 9.863,25.789 H 6.242 L 9.195,27.984 8.051,31.465 10.961,29.32 13.867,31.465 12.742,27.984 15.664,25.789 H 12.035 L 10.961,22.395 Z"
                     style="fill:url(#linearGradient3205);stroke:none"
                     id="path2829" />
                </g>
              </g>
            </g>
            <g
               id="g2843">
              <g
                 id="g2841">
                <g
                   id="g2839">
                  <path
                     d="M 23.398,10.512 H 19.418 L 22.664,12.926 21.395,16.758 24.609,14.398 27.816,16.758 26.562,12.926 29.793,10.512 H 25.793 L 24.609,6.77 Z"
                     style="fill:url(#linearGradient3207);stroke:none"
                     id="path2837" />
                </g>
              </g>
            </g>
            <g
               id="g2851">
              <g
                 id="g2849">
                <g
                   id="g2847">
                  <path
                     d="M 44.418,5.223 H 38.852 L 43.387,8.602 41.625,13.957 46.105,10.656 50.59,13.957 48.844,8.602 53.344,5.223 H 47.758 L 46.105,0 Z"
                     style="fill:url(#linearGradient3209);stroke:none"
                     id="path2845" />
                </g>
              </g>
            </g>
            <g
               id="g2859">
              <g
                 id="g2857">
                <g
                   id="g2855">
                  <path
                     d="M 4.703,62.051 H 1.859 L 4.172,63.77 3.277,66.496 5.559,64.816 7.848,66.496 6.957,63.77 9.246,62.051 H 6.398 L 5.559,59.387 Z"
                     style="fill:url(#linearGradient3211);stroke:none"
                     id="path2853" />
                </g>
              </g>
            </g>
            <g
               id="g2867">
              <g
                 id="g2865">
                <g
                   id="g2863">
                  <path
                     d="M 2.84,43.836 H 0 L 2.32,45.559 1.414,48.285 3.707,46.602 5.988,48.285 5.094,45.559 7.395,43.836 H 4.539 L 3.707,41.168 Z"
                     style="fill:url(#linearGradient3213);stroke:none"
                     id="path2861" />
                </g>
              </g>
            </g>
            <g
               id="g2875">
              <g
                 id="g2873">
                <g
                   id="g2871">
                  <path
                     d="M 12.371,74.91 9.805,74.656 11.754,76.418 10.691,78.812 12.91,77.488 14.828,79.211 14.27,76.664 16.496,75.309 13.914,75.059 13.383,72.578 Z"
                     style="fill:url(#linearGradient3215);stroke:none"
                     id="path2869" />
                </g>
              </g>
            </g>
            <g
               id="g2883">
              <g
                 id="g2881">
                <g
                   id="g2879">
                  <path
                     d="M 24.398,81.766 21.836,81.516 23.781,83.277 22.723,85.668 24.938,84.352 26.859,86.07 26.293,83.523 28.52,82.164 25.941,81.914 25.414,79.43 Z"
                     style="fill:url(#linearGradient3217);stroke:none"
                     id="path2877" />
                </g>
              </g>
            </g>
          </g>
        </g>
      </g>
    </g>
  </g>
</svg>
