<?xml version="1.0" encoding="UTF-8" standalone="no"?>
<!-- Created with Inkscape (http://www.inkscape.org/) -->

<svg
   width="5.7067547mm"
   height="4mm"
   viewBox="0 0 5.7067546 3.9999999"
   version="1.1"
   id="svg5"
   inkscape:version="1.1.2 (b8e25be833, 2022-02-05)"
   sodipodi:docname="fig-icon-mailer.svg"
   xmlns:inkscape="http://www.inkscape.org/namespaces/inkscape"
   xmlns:sodipodi="http://sodipodi.sourceforge.net/DTD/sodipodi-0.dtd"
   xmlns="http://www.w3.org/2000/svg"
   xmlns:svg="http://www.w3.org/2000/svg">
  <sodipodi:namedview
     id="namedview7"
     pagecolor="#ffffff"
     bordercolor="#111111"
     borderopacity="1"
     inkscape:pageshadow="0"
     inkscape:pageopacity="0"
     inkscape:pagecheckerboard="false"
     inkscape:document-units="mm"
     showgrid="true"
     inkscape:zoom="14.233851"
     inkscape:cx="-14.156394"
     inkscape:cy="16.861213"
     inkscape:window-width="1920"
     inkscape:window-height="1009"
     inkscape:window-x="-8"
     inkscape:window-y="-8"
     inkscape:window-maximized="1"
     inkscape:current-layer="layer1"
     inkscape:snap-grids="true"
     units="mm"
     fit-margin-top="0"
     fit-margin-left="0"
     fit-margin-right="0"
     fit-margin-bottom="0">
    <inkscape:grid
       type="xygrid"
       id="grid832"
       units="mm"
       empspacing="10"
       spacingx="1"
       spacingy="1"
       originx="-12.128948"
       originy="-86.62721" />
  </sodipodi:namedview>
  <defs
     id="defs2">
    <clipPath
       clipPathUnits="userSpaceOnUse"
       id="clipPath409">
      <path
         d="M 0,0 H 36 V 36 H 0 Z"
         id="path407" />
    </clipPath>
  </defs>
  <g
     inkscape:label="Layer 1"
     inkscape:groupmode="layer"
     id="layer1"
     transform="translate(-12.128948,-86.627221)">
    <g
       id="g2973"
       transform="matrix(0.11111089,0,0,-0.11111089,11.97795,89.923226)">
      <g
         id="g2971">
        <g
           id="g2969">
          <g
             id="g2967"
             clip-path="url(#clipPath409)">
            <g
               id="g2965"
               transform="scale(0.1)">
              <path
                 d="M 38.5898,296.289 H 321.41 C 335.121,296.289 346.129,285.23 346.129,271.559 V 88.2813 C 346.129,74.5703 335.121,63.5508 321.41,63.5508 H 38.5898 C 24.8789,63.5508 13.8711,74.5703 13.8711,88.2813 V 271.559 C 13.8711,285.23 24.8789,296.289 38.5898,296.289 Z"
                 style="fill:#1494cc;fill-opacity:1;fill-rule:nonzero;stroke:none"
                 id="path2961" />
              <path
                 d="M 13.5898,296.641 V 283.871 L 116.559,180.859 13.5898,76.9883 V 63.3594 H 30.5898 L 131.91,165.551 163.398,134.02 C 172.109,125.309 187.031,125.309 195.738,134.02 L 227.23,165.551 328.551,63.3594 H 346.41 V 76.1289 L 242.578,180.859 346.41,284.691 V 296.641 H 326.84 L 180.43,150.199 C 179.961,149.77 179.18,149.77 178.711,150.199 L 32.3008,296.641 Z"
                 style="fill:#ffffff;fill-opacity:1;fill-rule:nonzero;stroke:none"
                 id="path2963" />
            </g>
          </g>
        </g>
      </g>
    </g>
    <g
       id="g36437"
       transform="matrix(0.17146659,0,0,-0.17146659,11.895928,91.713623)"
       style="stroke-width:0.648003">
      <g
         id="g36435"
         style="stroke-width:0.648003">
        <g
           id="g36433"
           style="stroke-width:0.648003">
          <g
             id="g36431"
             clip-path="url(#clipPath409)"
             style="stroke-width:0.648003">
            <g
               id="g36429"
               transform="scale(0.1)"
               style="stroke-width:0.648003">
              <path
                 d="M 38.5898,296.289 H 321.41 C 335.121,296.289 346.129,285.23 346.129,271.559 V 88.2813 C 346.129,74.5703 335.121,63.5508 321.41,63.5508 H 38.5898 C 24.8789,63.5508 13.8711,74.5703 13.8711,88.2813 V 271.559 C 13.8711,285.23 24.8789,296.289 38.5898,296.289 Z"
                 style="fill:#1494cc;fill-opacity:1;fill-rule:nonzero;stroke:none;stroke-width:0.648003"
                 id="path36425" />
              <path
                 d="M 13.5898,296.641 V 283.871 L 116.559,180.859 13.5898,76.9883 V 63.3594 H 30.5898 L 131.91,165.551 163.398,134.02 C 172.109,125.309 187.031,125.309 195.738,134.02 L 227.23,165.551 328.551,63.3594 H 346.41 V 76.1289 L 242.578,180.859 346.41,284.691 V 296.641 H 326.84 L 180.43,150.199 C 179.961,149.77 179.18,149.77 178.711,150.199 L 32.3008,296.641 Z"
                 style="fill:#ffffff;fill-opacity:1;fill-rule:nonzero;stroke:none;stroke-width:0.648003"
                 id="path36427" />
            </g>
          </g>
        </g>
      </g>
    </g>
  </g>
</svg>
